# xmcd CD database file
#
# Track frame offsets:
#	150
#	35925
#	80700
#	120375
#	154875
#	191400
#	228825
#
# Disc length: 3513 seconds
#
# Revision: 0
# Processed by: cddbd v1.5PL3 Copyright (c) Steve Scherf et al.
# Submitted via: CDex 1.51
#
DISCID=540db707
DTITLE=Jim Snidero - Blue Afternoon
DYEAR=1993
DGENRE=Jazz
TTITLE0=Enforcement
TTITLE1=Forethought
TTITLE2=The Trifle
TTITLE3=Soul Eyes
TTITLE4=Blue Afternoon
TTITLE5=Infant Eyes
TTITLE6=Toro
EXTD=YEAR: 1993
EXTT0=
EXTT1=
EXTT2=
EXTT3=
EXTT4=
EXTT5=
EXTT6=
PLAYORDER=
